<svg xmlns="http://www.w3.org/2000/svg" width="24" height="24" style=""><rect id="backgroundrect" width="100%" height="100%" x="0" y="0" fill="none" stroke="none"/><g class="currentLayer" style=""><title>Layer 1</title><path d="M11.346068483352662,0 c-5.064,0 -9.031,3.075 -9.031,7 v13.253 c0,1.994 3,3.747 9.029,3.747 c5.94,0 8.971,-1.745 8.971,-3.747 v-13.253 c0,-3.925 -3.939,-7 -8.969,-7 zm0,1 c4.295,0 7.686,2.4370000000000003 7.943,5.612 c-1.501,-0.9580000000000001 -4.505,-1.612 -7.974,-1.612 c-3.467,0 -6.472,0.6540000000000001 -7.975,1.612 c0.261,-3.175 3.678,-5.612 8.006,-5.612 zm0.04700000000000001,8.781 c-2.053,0 -6.489,-0.39000000000000007 -6.489,-1.391 c0,-1.01 3.9859999999999998,-1.3900000000000001 6.489,-1.3900000000000001 c2.568,0 6.5120000000000005,0.39000000000000007 6.5120000000000005,1.391 c0,1.01 -4.41,1.3900000000000001 -6.5120000000000005,1.3900000000000001 zm-0.04900000000000001,12.219 c-5.397,0 -6.966,-1.481 -7.029,-1.747 v-9.508 c1.549,0.787 4.5,1.234 6.979,1.234 c2.396,0 5.473,-0.44800000000000006 7.021,-1.233 l0.0020000000000000005,9.5 c-0.06600000000000002,0.273 -1.6270000000000002,1.754 -6.973,1.754 z" id="svg_1" class="selected" fill="#000000" fill-opacity="1"/></g></svg>